# xmcd CD database file
#
# Track frame offsets:
#	150
#	11310
#	23982
#	33486
#	45039
#	57516
#	66399
#	77862
#	87735
#	99396
#	112452
#	122034
#	133209
#	146193
#	155880
#	166764
#	180204
#	190506
#	204171
#	217959
#
# Disc length: 3040 seconds
#
# Revision: 1
# Processed by: cddbd v1.5.2PL0 Copyright (c) Steve Scherf et al.
# Submitted via: CDex 1.51
#
DISCID=180bde14
DTITLE=THE BEST COUNTRY MUSIC - CD02- THE BEST COUNTRY MUSIC
DYEAR=2014
DGENRE=Country
TTITLE0=I FORGOT TO REMEMBER TO FORGET (KESLER-FEATHERS) - ELVIS PRESLEY
TTITLE1=NORTH TO ALASKA (PHILLIPS) - JOHNNY HORTON
TTITLE2=AM I THAT EASY TO FORGET (C.BELEW-W.S. STEVENSON) - SKEETER DAVIS
TTITLE3=MULE TRAIN (LANGE-HEAT-SCOTT-GLICKMAN) - FRANKIE LAINE
TTITLE4=STILL (B.ANDERSON) - BILL ANDERSON
TTITLE5=LOVES'S GONNA LIVE HERE (B.OWENS) - BUCK OWENS
TTITLE6=I LOVE YOU MORE TODAY (L.E.WHITE) - CONWAY TWITTY
TTITLE7=ABILENE (BROWN-GIBSON-LOUDERMILK) - GEORGE HAMILTON IV
TTITLE8=WHITE LIGHTNIN' (WOOLEY) - GEORGE JONES
TTITLE9=DEVIL WOMAN (ROBBINS) - MARTY ROBBINS
TTITLE10=LAST DAY IN THE MINES (DUDLEY) - DAVE DUDLEY
TTITLE11=OH LONESOME ME (GIBSON) - DON GIBSON
TTITLE12=I DON'T HURT ANYMORE (ROBERTSON-ROLLINS) - HANK SNOW
TTITLE13=A SIX PACK TO GO (THOMPSON-LOWE-HART) - HANK THOMPSON
TTITLE14=I GUESS I'M CRAZY (FAIRBURN) - JIM REEVES
TTITLE15=SMOKE SMOKE SMOKE! (THAT CIGARETTE) (M.TRAVIS-T.WILLIAMS - TEX WILLIAMS
TTITLE16=IT'S ONLY MAKE BELIEVE (TWITTY-NANCE) - WANDA JACKSON
TTITLE17=DON'T TAKE YOUR GUNS TO TOWN (CASH) - JOHNNY CASH
TTITLE18=SAGINAW MICHIGAN (WAYNE-ANDERSON) - LEFTY FRIZZEL
TTITLE19=WALK ON BY (KENDALL HAYES) - LEROY VAN DYKE
EXTD=YEAR: 2014
EXTT0=
EXTT1=
EXTT2=
EXTT3=
EXTT4=
EXTT5=
EXTT6=
EXTT7=
EXTT8=
EXTT9=
EXTT10=
EXTT11=
EXTT12=
EXTT13=
EXTT14=
EXTT15=
EXTT16=
EXTT17=
EXTT18=
EXTT19=
PLAYORDER=
